<?xml version="1.0" encoding="utf-8"?>
<!-- Generator: Adobe Illustrator 27.0.1, SVG Export Plug-In . SVG Version: 6.00 Build 0)  -->
<svg version="1.1" id="layer" xmlns="http://www.w3.org/2000/svg" xmlns:xlink="http://www.w3.org/1999/xlink" x="0px" y="0px"
	 viewBox="0 0 599.9 243.4" style="enable-background:new 0 0 599.9 243.4;" xml:space="preserve">
<style type="text/css">
	.st0{fill:#E50F15;}
	.st1{fill:#313132;}
	.st2{fill:#231815;}
</style>
<g>
	<path class="st0" d="M121.7,0C54.5,0,0,54.5,0,121.7s54.5,121.7,121.7,121.7s121.7-54.5,121.7-121.7S188.9,0,121.7,0 M121.7,223.1
		c-56,0-101.4-45.4-101.4-101.4S65.7,20.3,121.7,20.3s101.4,45.4,101.4,101.4S177.7,223.1,121.7,223.1"/>
	<path class="st0" d="M112.1,131.3H53.3c1.1,8.8,3.8,16.9,8.1,24.4v-0.3h50.7V131.3z"/>
	<path class="st0" d="M121.7,190.7c18.5,0,34.4-6.4,47.7-19.1H74C87.3,184.3,103.2,190.7,121.7,190.7"/>
	<path class="st0" d="M112.1,87.6H61.5c-4.3,7.5-7.1,15.7-8.2,24.5h58.8V87.6z"/>
	<path class="st0" d="M121.7,52.6c-18.3,0-34.1,6.3-47.3,18.7H169C155.8,58.9,140.1,52.6,121.7,52.6"/>
	<path class="st0" d="M121.7,24.1c-53.9,0-97.6,43.7-97.6,97.6s43.7,97.6,97.6,97.6s97.6-43.7,97.6-97.6S175.6,24.1,121.7,24.1
		 M182.2,155.3L182.2,155.3h19.3c-4.2,10-10.4,19.1-18.7,27.4c-16.8,16.9-37.2,25.3-61,25.3s-44.2-8.4-61-25.3
		c-16.9-16.9-25.3-37.2-25.3-61s8.4-44.2,25.3-61c16.8-16.9,37.2-25.3,61-25.3s44.2,8.4,61,25.3c8.2,8.2,14.4,17.2,18.6,27.1H182
		c0,0,0-0.1-0.1-0.1h-50.6v24.4h73.8l-0.2,19.3h-73.5v24.1h50.8V155.3z"/>
	<path class="st1" d="M370.9,97.8v15.7h37.3c3.9,0,7.3,1.2,9.7,3.4c2.5,2.2,3.9,5.2,3.9,8.9v21.9c0,4.5-1.3,7.9-3.7,10.2
		c-2.3,2-5.7,3.1-10.1,3.1h-85.6c-4.9,0-8.4-0.9-10.9-2.9c-2.9-2.3-4.2-6-4.2-11.3v-21.7c0-3.7,1.4-6.5,3.6-8.5c2.6-2,6-3.1,9.7-3.1
		h26.6V97.8h-44.4v13.6c0,16.8-2.9,36.6-7.8,50h-25c7-16.2,8.1-33.8,8.1-53.8V39.3c0-3.2,1.4-6.5,4.1-8.9c2.3-2.3,5.5-3.9,8.9-3.9
		h116.2c4.9,0,8.9,1.4,11.7,4c2.6,2.5,4.1,6.2,4.1,10.6v14.5c0,4.2-1.3,7.7-3.6,10.3c-2.4,2.8-6,4.5-10.6,4.5h-38v13.9h50.9v13.6
		h-50.9V97.8z M398.7,42.2c0-0.8-1.3-2-2.1-2h-91.9c-1,0-2.1,0.8-2.1,1.7v14.4l94.2-0.2c0.8,0,1.9-1.1,1.9-2.2L398.7,42.2
		L398.7,42.2z M347.2,70.4h-44.7v13.9h44.7V70.4z M398.1,129c0-0.9-1-1.8-2-1.8h-62.6c-1,0-2.3,0.6-2.3,1.5v17.1
		c0,0.9,1.3,1.8,2.3,1.8h62.7c1.1,0,2-0.9,2-1.8V129H398.1z"/>
	<path class="st1" d="M513.5,110.5c-7.9,18.7-19.5,35.9-33.8,51.5H451c10.2-11.6,20.3-24.1,28.4-36.9c-7-9.9-13.5-20.4-18.2-31
		h-14.5c9.9-21.9,16.1-45.5,21.6-69.1h24.5c-1,6-2.6,13.1-4.1,18.4h25c3.1,0,6,1.2,8.3,3.1c2.4,2.2,4.1,5.1,3.9,8
		C525.4,74.3,521,92.9,513.5,110.5 M500.4,58h-15.3c-2.6,8.8-5.7,17.9-8.9,26.5h6.5c2.4,6,5.7,12,8.7,17.6
		c5.4-12.6,9.8-28.1,11.1-41.5C502.6,59.4,501.5,58,500.4,58 M569.9,100.1c-7-21.9-7-17.3-10.8-40.6v102.6h-23.9v-137h24v32.2h23.4
		c4.1,24.4,4.1,19.7,11.4,42.8H569.9z"/>
	<path class="st1" d="M285.3,172.1h11.6v32.6c0,14.7-5.1,20-16,20h-10.8v-9.2h8c4.9,0,7.2-3,7.2-11L285.3,172.1L285.3,172.1z"/>
	<path class="st1" d="M337.7,211.6c0,4.9,0.1,8.9,0.3,12h-10.1l-0.5-5.3h-0.2c-1.4,2.3-5,6.1-11.7,6.1c-7.6,0-13.1-4.7-13.1-16.3
		v-22h11.7v20.1c0,5.4,1.8,8.7,5.8,8.7c3.2,0,5.1-2.2,5.8-4c0.3-0.7,0.4-1.6,0.4-2.5v-22.3h11.7L337.7,211.6L337.7,211.6z"/>
	<path class="st1" d="M351.2,186.2l3,15.3c0.8,3.8,1.5,8,2.2,12.3h0.2c0.8-4.3,1.8-8.6,2.7-12.2l4-15.4h9.2l3.7,14.9
		c1,4.2,2,8.4,2.8,12.7h0.2c0.5-4.3,1.3-8.5,2.2-12.8l3.2-14.8H396l-11.5,37.4h-10.9l-3.5-13.2c-0.9-3.7-1.6-7-2.4-11.6h-0.1
		c-0.7,4.7-1.4,8.2-2.5,11.6l-3.7,13.2h-11.2l-10.9-37.4H351.2z"/>
	<path class="st1" d="M428.1,214.5c0,3.6,0.1,7,0.5,9.1h-10.4l-0.7-3.7h-0.2c-2.4,3-6.3,4.6-10.7,4.6c-7.6,0-12.1-5.5-12.1-11.5
		c0-9.7,8.7-14.4,22-14.3v-0.5c0-2-1.1-4.8-6.8-4.8c-3.8,0-7.9,1.3-10.3,2.8l-2.1-7.5c2.6-1.4,7.7-3.3,14.5-3.3
		c12.5,0,16.5,7.3,16.5,16.1v13H428.1z M416.8,206c-6.1-0.1-10.9,1.4-10.9,5.9c0,3,2,4.4,4.6,4.4c2.9,0,5.3-1.9,6-4.3
		c0.2-0.6,0.2-1.3,0.2-2L416.8,206L416.8,206z"/>
	<path class="st1" d="M445.5,175.8c0,3.2-2.4,5.8-6.3,5.8c-3.7,0-6.1-2.6-6.1-5.8c-0.1-3.4,2.4-5.9,6.1-5.9
		C443,170,445.4,172.5,445.5,175.8 M433.5,186.2h11.6v37.4h-11.6V186.2z"/>
	<path class="st0" d="M456.5,224.5c-3.9,0-6.7-3-6.7-7c0-4.1,2.8-7.1,6.9-7.1c4.1,0,6.8,2.9,6.8,7.1
		C463.5,221.5,460.7,224.5,456.5,224.5L456.5,224.5z"/>
	<path class="st0" d="M494.8,222.7c-2.1,0.9-6,1.8-10.4,1.8c-12.1,0-19.8-7.4-19.8-19.2c0-10.9,7.5-19.9,21.4-19.9
		c3.1,0,6.4,0.5,8.9,1.5l-1.8,8.6c-1.4-0.6-3.4-1.1-6.5-1.1c-6.1,0-10.1,4.4-10,10.5c0,6.9,4.6,10.5,10.2,10.5
		c2.8,0,4.9-0.5,6.7-1.2L494.8,222.7z"/>
	<path class="st0" d="M533.5,204.5c0,13.7-9.7,20-19.7,20c-10.9,0-19.3-7.2-19.3-19.3c0-12.1,8-19.8,20-19.8
		C525.8,185.4,533.5,193.3,533.5,204.5 M506.4,204.9c0,6.4,2.7,11.2,7.7,11.2c4.5,0,7.4-4.5,7.4-11.2c0-5.6-2.1-11.2-7.4-11.2
		C508.5,193.7,506.4,199.4,506.4,204.9"/>
	<path class="st0" d="M536.9,198.2c0-4.7-0.2-8.6-0.3-11.9h9.8l0.5,5.1h0.2c1.6-2.4,4.9-5.9,11.3-5.9c4.8,0,8.7,2.4,10.3,6.4h0.2
		c1.4-2,3.1-3.4,4.8-4.5c2.1-1.2,4.4-1.8,7.1-1.8c7.2,0,12.6,5,12.6,16.2v22h-11.3v-20.5c0-5.4-1.8-8.6-5.5-8.6
		c-2.7,0-4.6,1.8-5.4,4.1c-0.3,0.8-0.5,2.1-0.5,3v21.9h-11.3v-21c0-4.7-1.7-8-5.4-8c-3,0-4.7,2.3-5.4,4.2c-0.4,0.9-0.5,2-0.5,2.9
		v21.8h-11.3v-25.4H536.9z"/>
	<path class="st2" d="M580.3,36.8c0,0.8,0,1.4,0.1,2.1h-2.1c0.1-0.6,0.1-1.3,0.1-2.1v-9.7h-2.5c-0.9,0-1.5,0-2.1,0.1v-1.9
		c0.7,0.1,1.2,0.1,2.1,0.1h6.9c1,0,1.5,0,2.2-0.1v1.9c-0.6-0.1-1.2-0.1-2.2-0.1h-2.5V36.8z M598,38.9c0.1-0.6,0.1-1.3,0.1-2.1V30
		c0-0.4,0.1-1.4,0.1-2.3c-0.2,0.7-0.5,1.6-0.8,2.2l-3.1,7c-0.3,0.7-0.5,1.4-0.7,1.9H592c-0.1-0.4-0.3-1.2-0.6-1.9l-3.1-7
		c-0.2-0.5-0.5-1.2-0.8-2.2c0.1,0.8,0.1,1.9,0.1,2.3v6.7c0,1,0,1.5,0.1,2.1h-2c0.1-0.7,0.1-1.2,0.1-2.1v-9.1c0-0.9,0-1.5-0.1-2.2
		h2.6c0.1,0.6,0.2,0.8,0.6,1.8l3.9,9l3.9-9c0.3-0.6,0.5-1.3,0.6-1.8h2.6c-0.1,0.7-0.1,1.2-0.1,2.2v9.1c0,1,0,1.5,0.1,2.1H598V38.9z"
		/>
</g>
</svg>
