<?xml version="1.0" encoding="utf-8"?>
<!-- Generator: Adobe Illustrator 27.0.1, SVG Export Plug-In . SVG Version: 6.00 Build 0)  -->
<svg version="1.1" id="Capa_1" xmlns="http://www.w3.org/2000/svg" xmlns:xlink="http://www.w3.org/1999/xlink" x="0px" y="0px"
	 viewBox="0 0 330 330" style="enable-background:new 0 0 330 330;" xml:space="preserve">
<style type="text/css">
	.st0{fill:#FFFFFF;}
</style>
<path class="st0" d="M315,0H15C6.7,0,0,6.7,0,15v300c0,8.3,6.7,15,15,15h170c8.3,0,15-6.7,15-15s-6.7-15-15-15H30V170h70v55
	c0,8.3,6.7,15,15,15s15-6.7,15-15V85c0-8.3-6.7-15-15-15s-15,6.7-15,15v55H30V30h150v75c0,8.3,6.7,15,15,15h70c8.3,0,15-6.7,15-15
	s-6.7-15-15-15h-55V30h90v180H195c-8.3,0-15,6.7-15,15s6.7,15,15,15h105v60h-25c-8.3,0-15,6.7-15,15s6.7,15,15,15h40
	c8.3,0,15-6.7,15-15V15C330,6.7,323.3,0,315,0z"/>
</svg>
