<?xml version="1.0" encoding="utf-8"?>
<!-- Generator: Adobe Illustrator 18.1.1, SVG Export Plug-In . SVG Version: 6.00 Build 0)  -->
<!DOCTYPE svg PUBLIC "-//W3C//DTD SVG 1.1//EN" "http://www.w3.org/Graphics/SVG/1.1/DTD/svg11.dtd">
<svg version="1.1" id="Layer_1" xmlns="http://www.w3.org/2000/svg" xmlns:xlink="http://www.w3.org/1999/xlink" x="0px" y="0px"
	 width="130px" height="96px" viewBox="0 0 130 96" enable-background="new 0 0 130 96" xml:space="preserve">
<g>
	<g>
		<path fill="#003A80" d="M4.8,57.6c0,1.5,0.5,2.1,2.2,2.1h0.9v0.5H0.4v-0.5h0.4c1.4,0,1.8-0.3,1.8-1.6V45.4c0-1-0.3-1.4-1.3-1.4H0
			v-0.5c0.8,0,2.1-0.1,3.4-0.2c1.3-0.1,2.6-0.1,3.3-0.1c5.6,0,6.9,2.7,6.9,4.8c0,3.1-2.5,5.1-6.5,5.1c-0.8,0-1.5-0.1-2.3-0.2V57.6z
			 M4.8,52.4c0.3,0.1,0.9,0.2,1.5,0.2c2.9,0,4.8-2,4.8-4.7c0-2.1-0.8-4.2-4.4-4.2c-0.6,0-1.2,0-1.9,0.1V52.4z"/>
		<path fill="#003A80" d="M19.1,57.7c0,1.6,0.6,2,2.2,2h0.6v0.5h-7.6v-0.5h0.5c1.6,0,2.2-0.4,2.2-2.2V46.2c0-1.7-0.5-2.2-2-2.2h-0.6
			v-0.5c0.6,0,2.3-0.1,3.4-0.2c1.1-0.1,1.6-0.1,3.4-0.1c5,0,7.2,2,7.2,4.8c0,2-1.4,3.7-3.6,4.4c1,0.8,1.8,1.5,3.1,2.8l2.1,2.1
			c1.6,1.6,3.2,2.6,5.3,2.7v0.5c-4.7,0.2-5.9-0.8-8.3-3.2L25,55.5c-1.2-1.2-2.1-2-2.8-2.4c-0.7,0-1.1,0.1-1.8,0.1
			c-0.6,0-0.9,0-1.4-0.1V57.7z M19.1,52.6c0.6,0.1,1,0.1,1.7,0.1c3,0,4.9-1.3,4.9-4.5c0-2.5-1.1-4.4-5.3-4.4c-0.5,0-0.9,0-1.3,0.1
			V52.6z"/>
		<g>
			<g>
				<path fill="#009D57" d="M39,57.8c-4.4,0-8.1-2.8-8.1-7c0-4.5,3.4-7.6,8.2-7.6c4.2,0,7.9,2.9,7.9,6.9C47,54.6,43.4,57.8,39,57.8z
					 M38.5,43.7c-3.9,0-5.5,3.7-5.5,6.4c0,4.2,2.8,7.1,6.5,7.1c3.7,0,5.4-3.2,5.4-6.4C44.9,46.6,42.2,43.7,38.5,43.7z"/>
			</g>
		</g>
		<path fill="#003A80" d="M52.5,57.6c0,1.5,0.5,2.1,2.2,2.1h0.9v0.5h-7.4v-0.5h0.4c1.4,0,1.8-0.3,1.8-1.6V45.4c0-1-0.3-1.4-1.3-1.4
			h-1.3v-0.5c0.8,0,2.1-0.1,3.4-0.2c1.3-0.1,2.6-0.1,3.3-0.1c5.6,0,6.9,2.7,6.9,4.8c0,3.1-2.5,5.1-6.5,5.1c-0.8,0-1.5-0.1-2.3-0.2
			V57.6z M52.5,52.4c0.3,0.1,0.9,0.2,1.5,0.2c2.9,0,4.8-2,4.8-4.7c0-2.1-0.8-4.2-4.4-4.2c-0.6,0-1.2,0-1.9,0.1V52.4z"/>
		<path fill="#003A80" d="M74.1,54.2h-0.5c-0.2-1.9-0.7-2.1-1.8-2.1h-4.5v5.7c0,1.2,0.5,1.5,1.5,1.5h4.1c1.9,0,2.4-0.7,3.1-3h0.5
			l-0.4,4H61.7v-0.5h0.8c2.2,0,2.5-0.6,2.5-2.2V46.2c0-1.5-0.3-2.2-2.1-2.2h-0.6v-0.5h12.9l0.2,3.7h-0.5c-0.3-2.3-1-2.8-2-2.8h-5.7
			v6.6H72c1,0,1.4-0.5,1.6-2h0.5V54.2z"/>
		<path fill="#003A80" d="M82.2,57.7c0,1.6,0.6,2,2.2,2H85v0.5h-7.6v-0.5h0.5c1.6,0,2.2-0.4,2.2-2.2V46.2c0-1.7-0.5-2.2-2-2.2h-0.6
			v-0.5c0.6,0,2.3-0.1,3.4-0.2c1.1-0.1,1.6-0.1,3.4-0.1c5,0,7.2,2,7.2,4.8c0,2-1.4,3.7-3.6,4.4c1,0.8,1.8,1.5,3.1,2.8l2.1,2.1
			c1.6,1.6,3.2,2.6,5.3,2.7v0.5c-4.7,0.2-5.9-0.8-8.3-3.2l-1.8-1.8c-1.2-1.2-2.1-2-2.8-2.4c-0.7,0-1.1,0.1-1.8,0.1
			c-0.6,0-0.9,0-1.4-0.1V57.7z M82.2,52.6c0.6,0.1,1,0.1,1.7,0.1c3,0,4.9-1.3,4.9-4.5c0-2.5-1.1-4.4-5.3-4.4c-0.5,0-0.9,0-1.3,0.1
			V52.6z"/>
		<path fill="#003A80" d="M104.2,57.7c0,1.5,0.5,2,2.1,2h1v0.5h-8.5v-0.5h1c1.6,0,2.1-0.5,2.1-2V44.5h-4.7c-1.1,0-1.6,0.6-2,3h-0.5
			l0.4-4.4h0.5c0,0.2,0.1,0.3,0.3,0.3c0.2,0.1,0.4,0.1,0.5,0.1h12.9c0.4,0,0.8-0.1,0.8-0.4h0.5l0.4,4.4h-0.5c-0.4-2.4-0.9-3-2-3
			h-4.7V57.7z"/>
		<path fill="#003A80" d="M125.3,45.9c0.9-1.5,0.3-1.9-1.4-1.9v-0.5h6.1V44c-1.8,0.1-2.6,0.9-3.4,2.1l-4.5,7.6v4c0,1.4,0.5,2,2.1,2
			h0.3v0.5h-7.4v-0.5h0.5c1.7,0,2.2-0.6,2.2-1.9V54l-4.8-7.5c-1.3-2.1-1.9-2.4-3.7-2.5v-0.5h7.2V44c-2.1,0-2.2,0.5-1.4,1.7l4.3,6.6
			L125.3,45.9z"/>
		<path fill="#003A80" d="M27.4,67.6c-0.7-2.1-2.7-3.5-5.1-3.5c-3.7,0-6.1,2.7-6.1,6.5c0,4.1,2.9,7,6.3,7c1.8,0,3.9-0.6,5.5-3.3h0.4
			c-0.3,1-0.9,2.4-1.4,3.3c-1.4-0.2-2.4,0.6-5.1,0.6c-4.5,0-7.8-3-7.8-7.2c0-4.3,3.4-7.5,8-7.5c2.8,0,4,0.9,4.7,0.9
			c0.2,0,0.4-0.1,0.4-0.1h0.3l0.2,3.2H27.4z"/>
		<path fill="#003A80" d="M37.9,78.2c-4.4,0-8.1-2.8-8.1-7c0-4.5,3.4-7.6,8.2-7.6c4.2,0,7.9,2.9,7.9,6.9
			C45.9,75,42.3,78.2,37.9,78.2z M37.5,64.2c-3.9,0-5.5,3.7-5.5,6.4c0,4.2,2.8,7.1,6.5,7.1c3.7,0,5.4-3.2,5.4-6.4
			C43.8,67.1,41.2,64.2,37.5,64.2z"/>
		<path fill="#003A80" d="M63.5,63.9v0.4c-1.5,0-2,0.6-2,2.1v6c0,2.8-1.8,5.8-6.6,5.8c-4.3,0-6.5-2.4-6.5-5.6V66
			c0-1.4-0.4-1.7-1.9-1.7v-0.4h5.8v0.4h-0.2c-1.2,0-1.8,0.3-1.8,1.6v6.2c0,3,1.8,4.8,5.1,4.8c2.5,0,5.1-1.1,5.1-4.9V67
			c0-2.2-0.3-2.5-2.2-2.6v-0.4H63.5z"/>
		<path fill="#003A80" d="M78.8,78L67.2,65.9v9.6c0,1.6,0.4,1.9,2.3,1.9v0.4h-5.2v-0.4h0.1c1.4,0,1.8-0.5,1.8-1.5v-11
			c-0.5-0.4-1.1-0.5-1.9-0.6v-0.4h3.5l10.6,11V66c0-1.4-0.4-1.6-2.2-1.7v-0.4h5.2v0.4c-1.7,0-2,0.3-2,1.2V78H78.8z"/>
		<path fill="#003A80" d="M95.2,67.6c-0.7-2.1-2.7-3.5-5.1-3.5c-3.7,0-6.1,2.7-6.1,6.5c0,4.1,2.9,7,6.3,7c1.8,0,3.9-0.6,5.5-3.3h0.4
			c-0.3,1-0.9,2.4-1.4,3.3c-1.4-0.2-2.4,0.6-5.1,0.6c-4.5,0-7.8-3-7.8-7.2c0-4.3,3.4-7.5,8-7.5c2.8,0,4,0.9,4.7,0.9
			c0.2,0,0.4-0.1,0.4-0.1h0.3l0.2,3.2H95.2z"/>
		<path fill="#003A80" d="M103,77.9h-5.4v-0.4c1.4-0.1,1.7-0.4,1.7-1.9V66c0-1.2-0.4-1.5-1.7-1.6v-0.4h5.4v0.4
			c-1.4,0-1.9,0.3-1.9,1.8v9.5c0,1.3,0.4,1.8,1.9,1.8V77.9z"/>
		<path fill="#003A80" d="M115.2,77.9h-10v-0.4h0.7c1,0,1.4-0.3,1.4-1.5V66c0-1.2-0.4-1.7-1.8-1.7h-0.3v-0.4h6.6v0.4H111
			c-1.5,0-1.8,0.2-1.8,1.5v10.3c0,0.6,0.2,0.8,0.9,0.8h3.3c1.3,0,1.7-0.5,3.1-2.5h0.4L115.2,77.9z"/>
		<path fill="#003A80" d="M33.4,85c0.5,0,1.6,0.7,1.6,2.5c0,3.2-3.2,4.7-4,4.7c-0.8,0-1.5-1.3-1.5-2.7C29.4,86.7,32.4,85,33.4,85z
			 M32.6,85.6c-1.1,0-2,2.1-2,3.8c0,1.4,0.6,2.1,1.2,2.1c1.4,0,2.2-2.2,2.2-3.8C33.9,86.5,33.3,85.6,32.6,85.6z"/>
		<path fill="#003A80" d="M36.6,85.7l0.1-0.3c0.4-0.1,0.8-0.1,1.2-0.2c0.3-1.4,0.8-2.9,1.7-3.8c0.6-0.6,1.3-0.9,2-0.9
			c0.7,0,1.2,0.4,1.2,0.8c0,0.3-0.2,0.5-0.5,0.5c-0.6,0-1-0.7-1.5-0.7c-0.7,0-1.2,0.8-1.4,1.9l-0.5,2.2h1.5l-0.2,0.6h-1.4l-0.9,5
			c-0.7,3.8-2.6,5.2-4.2,5.2c-0.7,0-1.3-0.4-1.3-0.8c0-0.3,0.3-0.5,0.6-0.5c0.6,0,1,0.8,1.6,0.8c0.4,0,0.7-0.2,1-0.5
			c0.9-0.9,1.2-3.8,1.2-4.2l0.9-5H36.6z"/>
		<path fill="#003A80" d="M54.7,81.1v9.6c0,0.7,0.3,1,1.4,1l-0.1,0.3h-4.5l0.1-0.3c1.3,0,1.8-0.4,1.8-1.3v-3h-3.8l-2.2,2.9
			c-0.7,0.9-0.1,1.4,0.8,1.4h0.3l-0.1,0.3h-3.7l0.1-0.3c0.9-0.1,1.5-0.7,2.1-1.6l6.9-9H54.7z M50,86.7h3.4v-4.4h0L50,86.7z"/>
		<path fill="#003A80" d="M62.7,90.8c0,0.1,0,0.2,0.1,0.2c0.2,0,0.5-0.3,1.1-1l0.2,0.2c-0.8,1-1.8,2-2.2,2c-0.2,0-0.3-0.2-0.3-0.6
			c0-0.2,0.1-0.7,0.2-1.1l0.4-2.2h-0.1c-0.9,1.2-1.6,2-2,2.3c-0.8,0.8-1.7,1.6-2,1.6c-0.3,0-0.5-0.3-0.5-0.9c0-0.3,0.1-0.6,0.1-1.1
			l0.7-3.4c0.1-0.4,0.1-0.5,0-0.5c-0.2,0-0.4,0.3-0.9,0.9l-0.2-0.1c0.7-1,1.6-1.9,2-1.9c0.4,0,0.4,0.4,0.2,1.2l-0.8,4.1
			c0,0.2-0.1,0.3-0.1,0.4c0,0.2,0.1,0.4,0.2,0.4c0.2,0,0.6-0.3,1.1-0.8c1-1,2.3-2.7,2.5-3.6l0.3-1.4c0-0.2,0.2-0.3,0.4-0.3h0.4
			c0.3,0,0.3,0.1,0.3,0.4L62.7,90.8z"/>
		<path fill="#003A80" d="M66,87.2c0-1,1.3-2.3,2.4-2.3c0.5,0,1,0.4,1,0.9c0,0.3-0.2,0.5-0.5,0.5c-0.5,0-0.5-1-1.1-1
			c-0.5,0-1,0.6-1,1.1c0,1.1,1.9,1.9,1.9,3.4c0,1.3-1,2.1-2.7,2.1c-0.8,0-1.3-0.3-1.3-0.8c0-0.3,0.2-0.5,0.5-0.5
			c0.6,0,1.1,0.8,1.8,0.8c0.5,0,1-0.4,1-0.9C68,89.5,66,88.5,66,87.2z"/>
		<path fill="#003A80" d="M74.3,85.7h-1.3l-1,5.2c-0.1,0.4-0.1,0.6,0.1,0.6c0.2,0,0.8-0.4,1.6-1.3l0.2,0.2c-0.9,1-1.9,1.7-2.4,1.7
			c-0.3,0-0.6-0.3-0.6-0.7c0-0.3,0.1-0.7,0.1-1.1l0.9-4.7H71l0.1-0.3c0.9-0.4,1.7-1.1,2.5-2.5h0.3c-0.3,0.7-0.6,1.5-0.8,2.2h1.3
			L74.3,85.7z"/>
		<path fill="#003A80" d="M75.5,86.8c0.9-1.1,1.6-1.8,2-1.8c0.2,0,0.4,0.2,0.4,0.5c0,0.6-0.5,2.8-0.9,4.2c-0.1,0.2,0,0.4,0.2,0
			l0.9-2.3c0.4-0.9,1.1-2.5,1.8-2.5c0.3,0,0.4,0.2,0.4,0.5c0,0.3-0.2,0.8-0.5,0.8c-0.1,0-0.2-0.1-0.4-0.1c-0.4,0-0.9,0.9-1.2,1.7
			c-0.4,0.9-0.9,2.3-1,2.7l-0.3,1.3c0,0.2-0.2,0.2-0.3,0.2H76c-0.2,0-0.2-0.1-0.2-0.3l0.9-5.2c0.1-0.3,0.1-0.6-0.1-0.6
			c-0.2,0-0.4,0.4-0.9,0.9L75.5,86.8z"/>
		<path fill="#003A80" d="M84.9,90.4c-0.1,0.5-0.1,0.7,0.1,0.7c0.2,0,0.7-0.5,1-0.9v0.4c-0.6,0.8-1.4,1.5-1.8,1.5
			c-0.7,0-0.5-1.3-0.2-2.4l0,0c-0.4,0.5-2.2,2.4-2.9,2.4c-0.5,0-1-0.9-1-1.8c0-2.6,2.9-5.5,5.9-5.4L84.9,90.4z M84.8,85.8
			c-1.1,0.1-1.8,0.4-2.4,1c-0.7,0.7-1.2,2.1-1.2,3.2c0,0.8,0.3,1.2,0.6,1.2c0.3,0,0.9-0.6,2.4-2L84.8,85.8z"/>
		<path fill="#003A80" d="M90.6,90.6c-0.8,1-1.6,1.5-2,1.5c-0.4,0-0.6-0.3-0.6-0.8c0-0.2,0-0.4,0.1-0.6l1.8-9c0.1-0.3,0-0.3-0.1-0.3
			c-0.1,0-0.4,0.2-1,0.5l-0.1-0.3l1.6-0.9c0.3-0.2,0.5-0.3,0.7-0.3c0.2,0,0.2,0.2,0.1,0.5l-2,10c-0.1,0.3-0.1,0.5,0.2,0.5
			c0.2,0,0.7-0.5,1.2-1L90.6,90.6z"/>
		<path fill="#003A80" d="M92.1,86.6c0.7-0.8,1.6-1.7,2-1.7c0.3,0,0.4,0.2,0.3,1l-1,4.7c-0.1,0.4-0.1,0.6,0.1,0.6
			c0.2,0,0.6-0.5,1.1-1l0.2,0.2c-0.7,0.9-1.6,1.7-2.1,1.7c-0.3,0-0.5-0.2-0.5-0.6c0-0.2,0-0.5,0.1-0.6l1-4.7c0-0.2,0-0.2-0.1-0.2
			c-0.1,0-0.2,0.1-0.4,0.2l-0.6,0.6L92.1,86.6z M94.9,81.3c0.3,0,0.4,0.2,0.4,0.5c0,0.5-0.3,1.3-0.8,1.3c-0.3,0-0.4-0.2-0.4-0.5
			C94.1,82,94.5,81.3,94.9,81.3z"/>
		<path fill="#003A80" d="M100.9,90.4c-0.1,0.5-0.1,0.7,0.1,0.7c0.2,0,0.7-0.5,1-0.9v0.4c-0.6,0.8-1.4,1.5-1.8,1.5
			c-0.7,0-0.5-1.3-0.2-2.4l0,0c-0.4,0.5-2.2,2.4-2.9,2.4c-0.5,0-1-0.9-1-1.8c0-2.6,2.9-5.5,5.9-5.4L100.9,90.4z M100.7,85.8
			c-1.1,0.1-1.8,0.4-2.4,1c-0.7,0.7-1.2,2.1-1.2,3.2c0,0.8,0.3,1.2,0.6,1.2c0.3,0,0.9-0.6,2.4-2L100.7,85.8z"/>
		<path fill="#003A80" d="M78.8,12.9c0-7.1-6.1-12.8-13.6-12.8c-7.5,0-13.6,5.7-13.6,12.8h2.3c0-5.8,5-10.6,11.2-10.6
			c6.2,0,11.2,4.7,11.2,10.6H78.8z"/>
		<rect x="51.7" y="20" fill="#003A80" width="2.4" height="14.9"/>
		<rect x="45.9" y="15.2" fill="#003A80" width="38.9" height="2.4"/>
		<rect x="64.1" y="20" fill="#003A80" width="2.4" height="14.5"/>
		<rect x="76.5" y="20" fill="#003A80" width="2.4" height="14.9"/>
		<g>
			<path fill="#009D57" d="M84.8,31.3c-1.8,5.5-8.9,5.7-19.6,3.8C58,33.9,51.8,35.3,45.8,39c6-6.8,12.7-7.2,19.5-6.2
				C71.8,33.8,81.7,35.3,84.8,31.3z"/>
		</g>
	</g>
</g>
</svg>
