<?xml version="1.0" encoding="utf-8"?>
<!-- Generator: Adobe Illustrator 27.0.1, SVG Export Plug-In . SVG Version: 6.00 Build 0)  -->
<svg version="1.1" id="Capa_1" xmlns="http://www.w3.org/2000/svg" xmlns:xlink="http://www.w3.org/1999/xlink" x="0px" y="0px"
	 viewBox="0 0 512 512" style="enable-background:new 0 0 512 512;" xml:space="preserve">
<style type="text/css">
	.st0{fill:#FFFFFF;}
</style>
<g>
	<path class="st0" d="M482.3,482h-39.6V15c0-8.3-6.7-15-15-15H84.3c-8.3,0-15,6.7-15,15v467H29.7c-8.3,0-15,6.7-15,15s6.7,15,15,15
		h452.6c8.3,0,15-6.7,15-15S490.6,482,482.3,482z M204.9,482V379.7h102.3V482H204.9z M337.1,482V364.7c0-8.3-6.7-15-15-15H189.9
		c-8.3,0-15,6.7-15,15V482H99.3V30h313.4v452H337.1z"/>
	<path class="st0" d="M223.7,66.3h-73.5c-8.3,0-15,6.7-15,15v73.5c0,8.3,6.7,15,15,15h73.5c8.3,0,15-6.7,15-15V81.3
		C238.7,73,232,66.3,223.7,66.3L223.7,66.3z M208.7,139.8h-43.5V96.3h43.5V139.8z"/>
	<path class="st0" d="M361.8,66.3h-73.5c-8.3,0-15,6.7-15,15v73.5c0,8.3,6.7,15,15,15h73.5c8.3,0,15-6.7,15-15V81.3
		C376.8,73,370,66.3,361.8,66.3z M346.8,139.8h-43.5V96.3h43.5V139.8z"/>
	<path class="st0" d="M223.7,206h-73.5c-8.3,0-15,6.7-15,15v73.5c0,8.3,6.7,15,15,15h73.5c8.3,0,15-6.7,15-15V221
		C238.7,212.7,232,206,223.7,206L223.7,206z M208.7,279.5h-43.5V236h43.5V279.5z"/>
	<path class="st0" d="M361.8,206h-73.5c-8.3,0-15,6.7-15,15v73.5c0,8.3,6.7,15,15,15h73.5c8.3,0,15-6.7,15-15V221
		C376.8,212.7,370,206,361.8,206L361.8,206z M346.8,279.5h-43.5V236h43.5V279.5z"/>
</g>
</svg>
