<svg width="128" height="25" viewBox="0 0 128 25" fill="none" xmlns="http://www.w3.org/2000/svg">
<path d="M9.64299 7.60338L7.47022 9.75427C6.58423 8.89809 5.78263 8.45956 5.0654 8.45956C4.6646 8.45956 4.34818 8.54309 4.13723 8.71015C3.92628 8.87721 3.79971 9.06515 3.79971 9.31574C3.79971 9.50368 3.863 9.67074 4.01066 9.81691C4.15833 9.98397 4.49584 10.1719 5.0654 10.4643L6.35219 11.1116C7.70226 11.759 8.63044 12.4481 9.13935 13.1163C9.64563 13.8054 9.89877 14.599 9.89877 15.5178C9.89877 16.7499 9.43468 17.7731 8.5276 18.5901C7.62052 19.4045 6.39702 19.8222 4.87555 19.8222C2.85044 19.8222 1.2235 19.0286 0 17.4625L2.15168 15.1445C2.57357 15.6039 3.03766 16.0007 3.58613 16.2931C4.13459 16.5854 4.64087 16.7316 5.06277 16.7316C5.52685 16.7316 5.90656 16.6063 6.18079 16.3975C6.45503 16.1886 6.60269 15.9381 6.60269 15.6457C6.60269 15.1028 6.09642 14.6016 5.06277 14.0795L3.88145 13.4948C1.6243 12.3881 0.482545 10.9681 0.482545 9.27397C0.482545 8.18809 0.904442 7.24838 1.76933 6.47312C2.63422 5.69787 3.71006 5.30371 5.02058 5.30371C5.92766 5.30371 6.77145 5.49165 7.59415 5.88842C8.41685 6.30606 9.09189 6.86989 9.64035 7.60077L9.64299 7.60338Z" fill="#302F32"/>
<path d="M14.0353 0C14.647 0 15.1744 0.208824 15.6174 0.647353C16.0604 1.08588 16.2713 1.62882 16.2713 2.2553C16.2713 2.88177 16.0604 3.40383 15.6174 3.82147C15.1744 4.23912 14.6681 4.46883 14.0564 4.46883C13.4446 4.46883 12.8962 4.26 12.4743 3.80059C12.0313 3.36206 11.8203 2.81912 11.8203 2.17177C11.8203 1.56618 12.0313 1.04412 12.4743 0.605589C12.8962 0.208824 13.4235 0 14.0353 0ZM12.2844 5.68261H15.7888V19.5146H12.2844V5.68261Z" fill="#302F32"/>
<path d="M28.4665 0.354492H31.9709V19.5115H28.4665V18.0497C27.7915 18.697 27.0953 19.1565 26.4203 19.4279C25.7242 19.6994 24.9858 19.8456 24.1842 19.8456C22.3912 19.8456 20.8275 19.1565 19.4985 17.7782C18.1907 16.4 17.5156 14.6641 17.5156 12.6177C17.5156 10.5712 18.1485 8.73093 19.4142 7.37358C20.6799 6.01622 22.2224 5.32711 24.0577 5.32711C24.9015 5.32711 25.682 5.49417 26.4203 5.78652C27.1586 6.09975 27.8337 6.58005 28.4454 7.20652V0.354492H28.4665ZM24.7934 8.52211C23.7175 8.52211 22.8104 8.89799 22.0932 9.67064C21.376 10.4224 21.0174 11.383 21.0174 12.5968C21.0174 13.8106 21.376 14.7685 22.1143 15.5438C22.8315 16.3165 23.7386 16.6923 24.8144 16.6923C25.8903 16.6923 26.8185 16.3165 27.5568 15.5438C28.274 14.792 28.6537 13.7897 28.6537 12.555C28.6537 11.3203 28.2951 10.3833 27.5568 9.62887C26.8185 8.89799 25.9114 8.52211 24.7934 8.52211Z" fill="#302F32"/>
<path d="M48.731 13.5995H37.4822C37.651 14.5809 38.0729 15.3745 38.769 15.9592C39.4862 16.5439 40.3722 16.8362 41.4691 16.8362C42.777 16.8362 43.895 16.3768 44.847 15.4789L47.8029 16.8571C47.0645 17.9012 46.1786 18.653 45.166 19.1542C44.1324 19.6553 42.93 19.9059 41.514 19.9059C39.3412 19.9059 37.5455 19.2168 36.1532 17.8386C34.7821 16.4603 34.0859 14.7663 34.0859 12.6989C34.0859 10.6316 34.7821 8.85394 36.1532 7.43394C37.5244 6.0557 39.2568 5.3457 41.3241 5.3457C43.518 5.3457 45.3137 6.0557 46.6848 7.43394C48.056 8.81218 48.7521 10.6524 48.7521 12.9495L48.731 13.5968V13.5995ZM45.2267 10.8613C44.9946 10.0886 44.5305 9.46214 43.8555 8.98185C43.1805 8.50155 42.3789 8.25096 41.4718 8.25096C40.5014 8.25096 39.6365 8.52243 38.8982 9.06538C38.4341 9.39949 38.0122 10.0051 37.6114 10.8613H45.2293H45.2267Z" fill="#302F32"/>
<path d="M59.5766 7.60376L57.4038 9.75464C56.5178 8.89846 55.7162 8.45993 54.999 8.45993C54.5982 8.45993 54.2818 8.54346 54.0708 8.71052C53.8599 8.87758 53.7333 9.06552 53.7333 9.31611C53.7333 9.50405 53.7966 9.67111 53.9443 9.81729C54.0919 9.98435 54.4294 10.1723 54.999 10.4646L56.2858 11.112C57.6359 11.7593 58.564 12.4485 59.0729 13.1167C59.5819 13.7849 59.8324 14.5994 59.8324 15.5182C59.8324 16.7502 59.3683 17.7735 58.4612 18.5905C57.5541 19.4075 56.3306 19.8226 54.8091 19.8226C52.784 19.8226 51.1571 19.029 49.9336 17.4628L52.0853 15.1449C52.5072 15.6043 52.9713 16.0011 53.5197 16.2934C54.0682 16.5858 54.5745 16.732 54.9964 16.732C55.4604 16.732 55.8402 16.6067 56.1144 16.3978C56.3886 16.189 56.5363 15.9384 56.5363 15.6461C56.5363 15.1031 56.03 14.602 54.9964 14.0799L53.815 13.4952C51.5579 12.3675 50.4161 10.9475 50.4161 9.25346C50.4161 8.16758 50.838 7.22787 51.7029 6.45262C52.5678 5.67997 53.6437 5.2832 54.9542 5.2832C55.8612 5.2832 56.705 5.47114 57.5277 5.86791C58.3504 6.30644 59.0255 6.87026 59.5739 7.60115L59.5766 7.60376Z" fill="#302F32"/>
<path d="M65.2763 5.68215V7.20656C65.9091 6.58009 66.5841 6.12068 67.3225 5.78656C68.0608 5.47332 68.8413 5.32715 69.6851 5.32715C71.5203 5.32715 73.0629 6.01627 74.3286 7.37362C75.5943 8.73097 76.2482 10.4877 76.2482 12.6177C76.2482 14.7477 75.5943 16.4 74.2653 17.7783C72.9574 19.1565 71.3938 19.8456 69.5796 19.8456C68.778 19.8456 68.0397 19.6994 67.3436 19.428C66.6474 19.1565 65.9513 18.6762 65.2763 18.0497V24.5676H61.793V5.70303H65.2763V5.68215ZM68.9705 8.52476C67.8736 8.52476 66.9454 8.90064 66.2282 9.65241C65.5109 10.4042 65.1312 11.3648 65.1312 12.5786C65.1312 13.7923 65.4898 14.7921 66.2282 15.5673C66.9454 16.3191 67.8736 16.7159 68.9705 16.7159C70.0674 16.7159 70.9534 16.34 71.6706 15.5673C72.409 14.7947 72.7676 13.8132 72.7676 12.6203C72.7676 11.4274 72.409 10.4694 71.6917 9.69417C70.9745 8.92153 70.0463 8.52476 68.9705 8.52476Z" fill="#302F32"/>
<path d="M88.9313 5.68247H92.4357V19.5144H88.9313V18.0527C88.2563 18.7 87.5602 19.1594 86.8851 19.4309C86.189 19.7024 85.4507 19.8485 84.6491 19.8485C82.856 19.8485 81.2924 19.1594 79.9634 17.7812C78.6555 16.403 77.9805 14.6671 77.9805 12.6206C77.9805 10.5742 78.6133 8.7339 79.879 7.37655C81.1447 6.0192 82.6873 5.33008 84.5225 5.33008C85.3663 5.33008 86.1468 5.49714 86.8851 5.78949C87.6235 6.10273 88.2985 6.58302 88.9103 7.20949L88.9313 5.68508V5.68247ZM85.2371 8.52508C84.1613 8.52508 83.2542 8.90096 82.537 9.67361C81.8197 10.4254 81.4611 11.386 81.4611 12.5998C81.4611 13.8135 81.8197 14.7715 82.5581 15.5468C83.2753 16.3194 84.1824 16.6953 85.2582 16.6953C86.334 16.6953 87.2622 16.3194 88.0005 15.5468C88.7178 14.795 89.0975 13.7927 89.0975 12.558C89.0975 11.3233 88.7389 10.3862 88.0005 9.63185C87.2622 8.90096 86.3551 8.52508 85.2345 8.52508H85.2371Z" fill="#302F32"/>
<path d="M108.836 8.48108L105.922 10.0681C105.374 9.50432 104.825 9.10755 104.298 8.87785C103.77 8.64814 103.137 8.54373 102.42 8.54373C101.112 8.54373 100.037 8.91961 99.2323 9.69226C98.4307 10.4649 98.0299 11.4673 98.0299 12.681C98.0299 13.8948 98.4096 14.811 99.1901 15.5654C99.9706 16.3198 100.983 16.6722 102.251 16.6722C103.813 16.6722 105.039 16.1501 105.904 15.0851L108.667 16.9437C107.169 18.8648 105.057 19.828 102.315 19.828C99.8678 19.828 97.9244 19.118 96.5532 17.6772C95.161 16.2363 94.4648 14.5422 94.4648 12.621C94.4648 11.2845 94.8024 10.0525 95.4774 8.92222C96.1524 7.79457 97.1017 6.91751 98.3067 6.27016C99.5092 5.62281 100.88 5.30957 102.36 5.30957C103.752 5.30957 104.975 5.58104 106.096 6.12398C107.256 6.68781 108.163 7.46045 108.838 8.48369L108.836 8.48108Z" fill="#302F32"/>
<path d="M124.157 13.5995H112.908C113.077 14.5809 113.499 15.3745 114.195 15.9592C114.912 16.5439 115.798 16.8362 116.895 16.8362C118.203 16.8362 119.321 16.3768 120.273 15.4789L123.229 16.8571C122.49 17.9012 121.604 18.653 120.592 19.1542C119.558 19.6553 118.356 19.9059 116.94 19.9059C114.767 19.9059 112.971 19.2168 111.579 17.8386C110.208 16.4603 109.512 14.7663 109.512 12.6989C109.512 10.6316 110.208 8.85394 111.579 7.43394C112.95 6.0557 114.683 5.3457 116.75 5.3457C118.944 5.3457 120.739 6.0557 122.111 7.43394C123.482 8.81218 124.178 10.6524 124.178 12.9495L124.157 13.5968V13.5995ZM120.652 10.8613C120.42 10.0886 119.956 9.46214 119.281 8.98185C118.606 8.50155 117.805 8.25096 116.898 8.25096C115.927 8.25096 115.062 8.52243 114.324 9.06538C113.86 9.39949 113.438 10.0051 113.037 10.8613H120.655H120.652Z" fill="#302F32"/>
<path d="M124.234 4.33803C124.326 4.13181 124.45 3.9517 124.611 3.7977C124.769 3.6463 124.953 3.52622 125.164 3.44009C125.375 3.35395 125.599 3.30957 125.837 3.30957C126.074 3.30957 126.296 3.35395 126.506 3.44009C126.715 3.52622 126.899 3.6463 127.055 3.7977C127.213 3.94909 127.337 4.1292 127.429 4.33803C127.522 4.54424 127.569 4.76873 127.569 5.00887C127.569 5.24902 127.522 5.48395 127.429 5.69277C127.337 5.90159 127.213 6.0817 127.055 6.23571C126.897 6.38972 126.715 6.50979 126.506 6.59332C126.298 6.67946 126.074 6.72123 125.837 6.72123C125.599 6.72123 125.375 6.67946 125.164 6.59332C124.953 6.50718 124.769 6.38972 124.611 6.23571C124.452 6.0817 124.326 5.90159 124.234 5.69277C124.141 5.48395 124.094 5.25685 124.094 5.00887C124.094 4.76089 124.141 4.54424 124.234 4.33803ZM124.518 5.59097C124.589 5.76847 124.69 5.92509 124.819 6.0556C124.945 6.18612 125.098 6.29053 125.272 6.36362C125.446 6.4367 125.634 6.47586 125.837 6.47586C126.04 6.47586 126.222 6.43932 126.396 6.36362C126.567 6.28792 126.717 6.18612 126.847 6.0556C126.973 5.92509 127.073 5.77108 127.147 5.59097C127.218 5.41347 127.255 5.2177 127.255 5.00887C127.255 4.80005 127.218 4.61472 127.147 4.43722C127.076 4.25972 126.976 4.10832 126.847 3.97781C126.72 3.84729 126.57 3.74549 126.396 3.6724C126.224 3.5967 126.037 3.56016 125.837 3.56016C125.636 3.56016 125.444 3.5967 125.272 3.6724C125.101 3.7481 124.948 3.8499 124.819 3.97781C124.692 4.10832 124.592 4.25972 124.518 4.43722C124.447 4.61472 124.41 4.80527 124.41 5.00887C124.41 5.21248 124.447 5.41347 124.518 5.59097ZM125.942 4.01696C126.182 4.01696 126.359 4.06395 126.475 4.15792C126.591 4.25189 126.649 4.39545 126.649 4.58862C126.649 4.76873 126.599 4.89924 126.496 4.98277C126.393 5.0663 126.269 5.1159 126.116 5.13156L126.694 6.01384H126.356L125.808 5.15505H125.475V6.01384H125.162V4.01696H125.942ZM125.802 4.90446C125.874 4.90446 125.94 4.90446 126.003 4.89663C126.066 4.89141 126.121 4.87836 126.172 4.85748C126.222 4.83659 126.261 4.80266 126.29 4.75828C126.319 4.71391 126.335 4.65387 126.335 4.57295C126.335 4.50509 126.322 4.45288 126.296 4.41373C126.269 4.37457 126.235 4.34325 126.195 4.32236C126.153 4.30148 126.106 4.28582 126.053 4.27799C126 4.27016 125.945 4.26755 125.895 4.26755H125.478V4.90185H125.805L125.802 4.90446Z" fill="#302F32"/>
</svg>
